<svg width="1013" height="383" viewBox="0 0 1013 383" fill="none" xmlns="http://www.w3.org/2000/svg">
<mask id="path-1-outside-1_115_80" maskUnits="userSpaceOnUse" x="0" y="0" width="1013" height="383" fill="black">
<rect fill="white" width="1013" height="383"/>
<path d="M8.92103 310.045V235.857L150.429 13.2909H217.748V112.209H179.28L103.031 233.109V235.857H311.858V310.045H8.92103ZM179.967 365V287.377L182.028 255.091V13.2909H271.329V365H179.967ZM505.101 374.617C473.158 374.503 445.566 367.118 422.325 352.463C399.084 337.809 381.167 316.686 368.573 289.094C355.979 261.502 349.739 228.415 349.854 189.832C349.968 151.135 356.265 118.277 368.745 91.2577C381.338 64.2383 399.199 43.6876 422.325 29.6055C445.566 15.5234 473.158 8.48235 505.101 8.48235C537.043 8.48235 564.635 15.5806 587.876 29.7772C611.117 43.8593 629.034 64.41 641.628 91.4294C654.222 118.449 660.462 151.25 660.347 189.832C660.347 228.644 654.05 261.846 641.456 289.437C628.863 317.029 610.945 338.152 587.704 352.807C564.577 367.347 537.043 374.617 505.101 374.617ZM505.101 296.994C521.587 296.994 535.097 288.407 545.63 271.234C556.277 253.946 561.543 226.812 561.429 189.832C561.429 165.675 559.025 145.926 554.216 130.584C549.408 115.243 542.767 103.909 534.295 96.5814C525.823 89.1396 516.091 85.4187 505.101 85.4187C488.614 85.4187 475.162 93.7764 464.743 110.492C454.325 127.207 449.001 153.654 448.772 189.832C448.658 214.447 451.005 234.712 455.813 250.626C460.622 266.425 467.262 278.103 475.734 285.659C484.321 293.216 494.11 296.994 505.101 296.994ZM701.735 310.045V235.857L843.243 13.2909H910.562V112.209H872.094L795.844 233.109V235.857H1004.67V310.045H701.735ZM872.781 365V287.377L874.842 255.091V13.2909H964.143V365H872.781Z"/>
</mask>
<path d="M8.92103 310.045V235.857L150.429 13.2909H217.748V112.209H179.28L103.031 233.109V235.857H311.858V310.045H8.92103ZM179.967 365V287.377L182.028 255.091V13.2909H271.329V365H179.967ZM505.101 374.617C473.158 374.503 445.566 367.118 422.325 352.463C399.084 337.809 381.167 316.686 368.573 289.094C355.979 261.502 349.739 228.415 349.854 189.832C349.968 151.135 356.265 118.277 368.745 91.2577C381.338 64.2383 399.199 43.6876 422.325 29.6055C445.566 15.5234 473.158 8.48235 505.101 8.48235C537.043 8.48235 564.635 15.5806 587.876 29.7772C611.117 43.8593 629.034 64.41 641.628 91.4294C654.222 118.449 660.462 151.25 660.347 189.832C660.347 228.644 654.05 261.846 641.456 289.437C628.863 317.029 610.945 338.152 587.704 352.807C564.577 367.347 537.043 374.617 505.101 374.617ZM505.101 296.994C521.587 296.994 535.097 288.407 545.63 271.234C556.277 253.946 561.543 226.812 561.429 189.832C561.429 165.675 559.025 145.926 554.216 130.584C549.408 115.243 542.767 103.909 534.295 96.5814C525.823 89.1396 516.091 85.4187 505.101 85.4187C488.614 85.4187 475.162 93.7764 464.743 110.492C454.325 127.207 449.001 153.654 448.772 189.832C448.658 214.447 451.005 234.712 455.813 250.626C460.622 266.425 467.262 278.103 475.734 285.659C484.321 293.216 494.11 296.994 505.101 296.994ZM701.735 310.045V235.857L843.243 13.2909H910.562V112.209H872.094L795.844 233.109V235.857H1004.67V310.045H701.735ZM872.781 365V287.377L874.842 255.091V13.2909H964.143V365H872.781Z" fill="url(#paint0_radial_115_80)"/>
<path d="M8.92103 310.045H0.861025V318.105H8.92103V310.045ZM8.92103 235.857L2.11938 231.532L0.861025 233.511V235.857H8.92103ZM150.429 13.2909V5.23087H146.002L143.627 8.96637L150.429 13.2909ZM217.748 13.2909H225.808V5.23087H217.748V13.2909ZM217.748 112.209V120.269H225.808V112.209H217.748ZM179.28 112.209V104.149H174.834L172.463 107.909L179.28 112.209ZM103.031 233.109L96.2133 228.809L94.9707 230.78V233.109H103.031ZM103.031 235.857H94.9707V243.917H103.031V235.857ZM311.858 235.857H319.918V227.797H311.858V235.857ZM311.858 310.045V318.105H319.918V310.045H311.858ZM179.967 365H171.907V373.06H179.967V365ZM179.967 287.377L171.923 286.863L171.907 287.12V287.377H179.967ZM182.028 255.091L190.071 255.604L190.088 255.348V255.091H182.028ZM182.028 13.2909V5.23087H173.968V13.2909H182.028ZM271.329 13.2909H279.389V5.23087H271.329V13.2909ZM271.329 365V373.06H279.389V365H271.329ZM16.981 310.045V235.857H0.861025V310.045H16.981ZM15.7227 240.181L157.231 17.6154L143.627 8.96637L2.11938 231.532L15.7227 240.181ZM150.429 21.3509H217.748V5.23087H150.429V21.3509ZM209.688 13.2909V112.209H225.808V13.2909H209.688ZM217.748 104.149H179.28V120.269H217.748V104.149ZM172.463 107.909L96.2133 228.809L109.848 237.409L186.098 116.509L172.463 107.909ZM94.9707 233.109V235.857H111.091V233.109H94.9707ZM103.031 243.917H311.858V227.797H103.031V243.917ZM303.798 235.857V310.045H319.918V235.857H303.798ZM311.858 301.985H8.92103V318.105H311.858V301.985ZM188.027 365V287.377H171.907V365H188.027ZM188.011 287.89L190.071 255.604L173.984 254.577L171.923 286.863L188.011 287.89ZM190.088 255.091V13.2909H173.968V255.091H190.088ZM182.028 21.3509H271.329V5.23087H182.028V21.3509ZM263.269 13.2909V365H279.389V13.2909H263.269ZM271.329 356.94H179.967V373.06H271.329V356.94ZM505.101 374.617L505.072 382.677L505.086 382.677H505.101V374.617ZM422.325 352.463L418.026 359.281L418.026 359.281L422.325 352.463ZM368.573 289.094L361.24 292.441L361.24 292.441L368.573 289.094ZM349.854 189.832L357.914 189.856L357.914 189.856L349.854 189.832ZM368.745 91.2577L361.439 87.8526L361.433 87.8653L361.427 87.8781L368.745 91.2577ZM422.325 29.6055L418.148 22.7122L418.141 22.7167L418.133 22.7213L422.325 29.6055ZM587.876 29.7772L583.674 36.6555L583.687 36.6631L583.699 36.6706L587.876 29.7772ZM641.628 91.4294L648.934 88.0243L648.934 88.0243L641.628 91.4294ZM660.347 189.832L652.287 189.808L652.287 189.82V189.832H660.347ZM641.456 289.437L648.789 292.784L648.789 292.784L641.456 289.437ZM587.704 352.807L591.994 359.63L592.003 359.625L587.704 352.807ZM545.63 271.234L538.767 267.007L538.763 267.013L538.759 267.02L545.63 271.234ZM561.429 189.832H553.369V189.845L553.369 189.857L561.429 189.832ZM554.216 130.584L561.907 128.174L561.907 128.174L554.216 130.584ZM534.295 96.5814L528.976 102.637L528.999 102.657L529.023 102.678L534.295 96.5814ZM464.743 110.492L457.903 106.228L457.903 106.228L464.743 110.492ZM448.772 189.832L440.712 189.781L440.712 189.795L448.772 189.832ZM455.813 250.626L448.098 252.957L448.1 252.965L448.102 252.973L455.813 250.626ZM475.734 285.659L470.369 291.675L470.389 291.692L470.41 291.71L475.734 285.659ZM505.129 366.557C474.448 366.447 448.39 359.37 426.624 345.646L418.026 359.281C442.743 374.866 471.868 382.558 505.072 382.677L505.129 366.557ZM426.624 345.646C404.847 331.914 387.918 312.065 375.905 285.747L361.24 292.441C374.416 321.306 393.321 343.704 418.026 359.281L426.624 345.646ZM375.905 285.747C363.907 259.46 357.802 227.582 357.914 189.856L341.794 189.808C341.677 229.248 348.051 263.544 361.24 292.441L375.905 285.747ZM357.914 189.856C358.026 151.984 364.191 120.339 376.062 94.6372L361.427 87.8781C348.339 116.215 341.911 150.286 341.794 189.809L357.914 189.856ZM376.05 94.6627C388.042 68.9334 404.885 49.6618 426.517 36.4897L418.133 22.7213C393.512 37.7134 374.634 59.5433 361.439 87.8526L376.05 94.6627ZM426.502 36.4989C448.277 23.3049 474.369 16.5423 505.101 16.5423V0.422346C471.947 0.422346 442.855 7.74192 418.148 22.7122L426.502 36.4989ZM505.101 16.5423C535.82 16.5423 561.903 23.3568 583.674 36.6555L592.077 22.899C567.366 7.80453 538.266 0.422346 505.101 0.422346V16.5423ZM583.699 36.6706C605.443 49.8455 622.335 69.1157 634.323 94.8344L648.934 88.0243C635.734 59.7044 616.791 37.8731 592.053 22.8839L583.699 36.6706ZM634.323 94.8344C646.292 120.513 652.399 152.075 652.287 189.808L668.407 189.856C668.524 150.424 662.152 116.385 648.934 88.0243L634.323 94.8344ZM652.287 189.832C652.287 227.8 646.124 259.8 634.124 286.091L648.789 292.784C661.976 263.891 668.407 229.488 668.407 189.832H652.287ZM634.124 286.091C622.112 312.409 605.183 332.258 583.405 345.989L592.003 359.625C616.708 344.047 635.614 321.65 648.789 292.784L634.124 286.091ZM583.414 345.984C561.777 359.587 535.786 366.557 505.101 366.557V382.677C538.299 382.677 567.378 375.107 591.994 359.63L583.414 345.984ZM505.101 305.054C525.043 305.054 540.879 294.395 552.5 275.448L538.759 267.02C529.314 282.419 518.13 288.934 505.101 288.934V305.054ZM552.492 275.461C564.341 256.222 569.605 227.23 569.489 189.807L553.369 189.857C553.482 226.394 548.213 251.67 538.767 267.007L552.492 275.461ZM569.489 189.832C569.489 165.225 567.05 144.582 561.907 128.174L546.525 132.995C550.999 147.27 553.369 166.125 553.369 189.832H569.489ZM561.907 128.174C556.835 111.992 549.563 99.1301 539.568 90.4851L529.023 102.678C535.971 108.687 541.98 118.494 546.525 132.995L561.907 128.174ZM539.614 90.5257C529.713 81.8289 518.104 77.3587 505.101 77.3587V93.4787C514.079 93.4787 521.933 96.4503 528.976 102.637L539.614 90.5257ZM505.101 77.3587C485.254 77.3587 469.46 87.6874 457.903 106.228L471.583 114.755C480.864 99.8654 491.974 93.4787 505.101 93.4787V77.3587ZM457.903 106.228C446.278 124.88 440.944 153.178 440.712 189.781L456.832 189.883C457.058 154.13 462.372 129.534 471.583 114.755L457.903 106.228ZM440.712 189.795C440.596 214.866 442.975 236.002 448.098 252.957L463.529 248.295C459.035 233.422 456.72 214.029 456.832 189.87L440.712 189.795ZM448.102 252.973C453.157 269.581 460.401 282.784 470.369 291.675L481.099 279.644C474.123 273.422 468.086 263.269 463.524 248.279L448.102 252.973ZM470.41 291.71C480.402 300.504 492.064 305.054 505.101 305.054V288.934C496.155 288.934 488.239 285.928 481.059 279.609L470.41 291.71ZM701.735 310.045H693.675V318.105H701.735V310.045ZM701.735 235.857L694.933 231.532L693.675 233.511V235.857H701.735ZM843.243 13.2909V5.23087H838.816L836.441 8.96637L843.243 13.2909ZM910.562 13.2909H918.622V5.23087H910.562V13.2909ZM910.562 112.209V120.269H918.622V112.209H910.562ZM872.094 112.209V104.149H867.648L865.276 107.909L872.094 112.209ZM795.844 233.109L789.027 228.809L787.784 230.78V233.109H795.844ZM795.844 235.857H787.784V243.917H795.844V235.857ZM1004.67 235.857H1012.73V227.797H1004.67V235.857ZM1004.67 310.045V318.105H1012.73V310.045H1004.67ZM872.781 365H864.721V373.06H872.781V365ZM872.781 287.377L864.737 286.863L864.721 287.12V287.377H872.781ZM874.842 255.091L882.885 255.604L882.902 255.348V255.091H874.842ZM874.842 13.2909V5.23087H866.782V13.2909H874.842ZM964.143 13.2909H972.203V5.23087H964.143V13.2909ZM964.143 365V373.06H972.203V365H964.143ZM709.795 310.045V235.857H693.675V310.045H709.795ZM708.536 240.181L850.044 17.6154L836.441 8.96637L694.933 231.532L708.536 240.181ZM843.243 21.3509H910.562V5.23087H843.243V21.3509ZM902.502 13.2909V112.209H918.622V13.2909H902.502ZM910.562 104.149H872.094V120.269H910.562V104.149ZM865.276 107.909L789.027 228.809L802.662 237.409L878.911 116.509L865.276 107.909ZM787.784 233.109V235.857H803.904V233.109H787.784ZM795.844 243.917H1004.67V227.797H795.844V243.917ZM996.612 235.857V310.045H1012.73V235.857H996.612ZM1004.67 301.985H701.735V318.105H1004.67V301.985ZM880.841 365V287.377H864.721V365H880.841ZM880.824 287.89L882.885 255.604L866.798 254.577L864.737 286.863L880.824 287.89ZM882.902 255.091V13.2909H866.782V255.091H882.902ZM874.842 21.3509H964.143V5.23087H874.842V21.3509ZM956.083 13.2909V365H972.203V13.2909H956.083ZM964.143 356.94H872.781V373.06H964.143V356.94Z" fill="white" mask="url(#path-1-outside-1_115_80)"/>
<defs>
<radialGradient id="paint0_radial_115_80" cx="0" cy="0" r="1" gradientUnits="userSpaceOnUse" gradientTransform="translate(506 189.5) rotate(90) scale(292.5 517)">
<stop stop-color="#5E493C"/>
<stop offset="1"/>
</radialGradient>
</defs>
</svg>
