<svg width="536" height="335" viewBox="0 0 536 335" fill="none" xmlns="http://www.w3.org/2000/svg">
<mask id="path-1-outside-1_119_85" maskUnits="userSpaceOnUse" x="0" y="0" width="536" height="335" fill="black">
<rect fill="white" width="536" height="335"/>
<path d="M108.821 7.89974L174.261 232.89H176.754L242.195 7.89974H340.044L234.716 327H116.3L10.9719 7.89974H108.821ZM527.835 7.89974V327H441.204V87.6748H439.334L369.531 129.432V55.8894L448.06 7.89974H527.835Z"/>
</mask>
<path d="M108.821 7.89974L174.261 232.89H176.754L242.195 7.89974H340.044L234.716 327H116.3L10.9719 7.89974H108.821ZM527.835 7.89974V327H441.204V87.6748H439.334L369.531 129.432V55.8894L448.06 7.89974H527.835Z" fill="url(#paint0_radial_119_85)"/>
<path d="M108.821 7.89974L115.843 5.85741L114.31 0.587023H108.821V7.89974ZM174.261 232.89L167.24 234.933L168.773 240.203H174.261V232.89ZM176.754 232.89V240.203H182.243L183.776 234.933L176.754 232.89ZM242.195 7.89974V0.587023H236.706L235.173 5.85741L242.195 7.89974ZM340.044 7.89974L346.988 10.1919L350.159 0.587023H340.044V7.89974ZM234.716 327V334.313H240.003L241.66 329.292L234.716 327ZM116.3 327L109.356 329.292L111.013 334.313H116.3V327ZM10.9719 7.89974V0.587023H0.857333L4.02768 10.1919L10.9719 7.89974ZM101.799 9.94207L167.24 234.933L181.283 230.848L115.843 5.85741L101.799 9.94207ZM174.261 240.203H176.754V225.578H174.261V240.203ZM183.776 234.933L249.217 9.94207L235.173 5.85741L169.733 230.848L183.776 234.933ZM242.195 15.2125H340.044V0.587023H242.195V15.2125ZM333.1 5.60761L227.772 324.708L241.66 329.292L346.988 10.1919L333.1 5.60761ZM234.716 319.687H116.3V334.313H234.716V319.687ZM123.244 324.708L17.9161 5.60761L4.02768 10.1919L109.356 329.292L123.244 324.708ZM10.9719 15.2125H108.821V0.587023H10.9719V15.2125ZM527.835 7.89974H535.148V0.587023H527.835V7.89974ZM527.835 327V334.313H535.148V327H527.835ZM441.204 327H433.891V334.313H441.204V327ZM441.204 87.6748H448.517V80.3621H441.204V87.6748ZM439.334 87.6748V80.3621H437.314L435.58 81.3993L439.334 87.6748ZM369.531 129.432H362.218V142.328L373.285 135.708L369.531 129.432ZM369.531 55.8894L365.718 49.6496L362.218 51.7882V55.8894H369.531ZM448.06 7.89974V0.587023H446.002L444.247 1.65993L448.06 7.89974ZM520.522 7.89974V327H535.148V7.89974H520.522ZM527.835 319.687H441.204V334.313H527.835V319.687ZM448.517 327V87.6748H433.891V327H448.517ZM441.204 80.3621H439.334V94.9875H441.204V80.3621ZM435.58 81.3993L365.777 123.157L373.285 135.708L443.088 93.9503L435.58 81.3993ZM376.844 129.432V55.8894H362.218V129.432H376.844ZM373.344 62.1292L451.873 14.1395L444.247 1.65993L365.718 49.6496L373.344 62.1292ZM448.06 15.2125H527.835V0.587023H448.06V15.2125Z" fill="white" mask="url(#path-1-outside-1_119_85)"/>
<defs>
<radialGradient id="paint0_radial_119_85" cx="0" cy="0" r="1" gradientUnits="userSpaceOnUse" gradientTransform="translate(300.5 167.5) rotate(90) scale(265.5 299.5)">
<stop stop-color="#FF2056"/>
<stop offset="1"/>
</radialGradient>
</defs>
</svg>
