<svg width="541" height="338" viewBox="0 0 541 338" fill="none" xmlns="http://www.w3.org/2000/svg">
<path d="M113.455 6.9678L112.68 4.30415H109.906H11H5.8881L7.4904 9.15844L113.956 331.705L114.794 334.243H117.466H237.161H239.833L240.67 331.705L347.136 9.15844L348.738 4.30415H343.627H244.721H241.947L241.172 6.9678L177.313 226.519L113.455 6.9678ZM537.142 8V4.30415H533.446H452.809H451.769L450.882 4.8464L371.505 53.3544L369.736 54.4353V56.508V130.845V137.363L375.33 134.017L442.183 94.0237V330.547V334.243H445.879H533.446H537.142V330.547V8Z" fill="url(#paint0_radial_66_28)" stroke="white" stroke-width="7.3917"/>
<defs>
<radialGradient id="paint0_radial_66_28" cx="0" cy="0" r="1" gradientUnits="userSpaceOnUse" gradientTransform="translate(303.655 169.047) rotate(90) scale(268.5 302.735)">
<stop stop-color="#6F5647"/>
<stop offset="1"/>
</radialGradient>
</defs>
</svg>
